<?xml version="1.0" ?><!DOCTYPE svg  PUBLIC '-//W3C//DTD SVG 1.1 Tiny//EN'  'http://www.w3.org/Graphics/SVG/1.1/DTD/svg11-tiny.dtd'><svg baseProfile="tiny" height="32px" version="1.1" viewBox="0 0 32 32" width="32px" xml:space="preserve" xmlns="http://www.w3.org/2000/svg" xmlns:xlink="http://www.w3.org/1999/xlink"><g id="Guides__x26__Forms"/><g id="Icons"><path d="M12,10v7.35C11.544,17.132,11.039,17,10.5,17C8.567,17,7,18.567,7,20.5S8.567,24,10.5,24s3.5-1.567,3.5-3.5v-4.944l8-1.988   v3.781C21.544,17.132,21.039,17,20.5,17c-1.933,0-3.5,1.567-3.5,3.5s1.567,3.5,3.5,3.5s3.5-1.567,3.5-3.5V7L12,10z M10.5,22   C9.673,22,9,21.327,9,20.5S9.673,19,10.5,19s1.5,0.673,1.5,1.5S11.327,22,10.5,22z M14,13.495v-1.933l8-2.02v1.965L14,13.495z    M20.5,22c-0.827,0-1.5-0.673-1.5-1.5s0.673-1.5,1.5-1.5s1.5,0.673,1.5,1.5S21.327,22,20.5,22z"/></g></svg>